<?xml version="1.0" standalone="no"?>
<!DOCTYPE svg PUBLIC "-//W3C//DTD SVG 20010904//EN"
 "http://www.w3.org/TR/2001/REC-SVG-20010904/DTD/svg10.dtd">
<svg version="1.0" xmlns="http://www.w3.org/2000/svg"
 width="512.000000pt" height="512.000000pt" viewBox="0 0 512.000000 512.000000"
 preserveAspectRatio="xMidYMid meet">
<metadata>
Created by potrace 1.11, written by Peter Selinger 2001-2013
</metadata>
<g transform="translate(0.000000,512.000000) scale(0.100000,-0.100000)"
fill="#000000" stroke="none">
<path d="M216 5098 c3 -4 -4 -8 -16 -8 -28 0 -90 -33 -117 -62 -31 -32 -53
-90 -53 -136 0 -21 -6 -44 -12 -51 -10 -11 -10 -13 0 -7 9 5 12 -6 12 -46 0
-30 -6 -60 -12 -67 -10 -11 -10 -13 -1 -7 18 10 18 -95 1 -113 -10 -11 -10
-13 -1 -7 18 10 18 -95 1 -113 -10 -11 -10 -13 -1 -7 18 10 18 -95 1 -113 -10
-11 -10 -13 0 -7 9 5 12 -6 12 -46 0 -30 -6 -60 -12 -67 -10 -11 -10 -13 -1
-7 10 5 13 -6 13 -46 0 -30 -6 -60 -13 -67 -9 -11 -9 -13 0 -7 18 10 18 -95 1
-113 -10 -11 -10 -13 0 -7 17 10 17 -95 -1 -113 -9 -11 -9 -13 0 -7 18 10 18
-95 0 -113 -9 -11 -9 -13 0 -7 18 10 18 -95 0 -113 -9 -11 -9 -13 0 -7 18 10
18 -95 0 -113 -9 -11 -9 -13 0 -7 18 10 18 -95 1 -113 -10 -11 -10 -13 -1 -7
18 10 18 -95 1 -113 -10 -11 -10 -13 -1 -7 18 10 18 -95 1 -113 -10 -11 -10
-13 -1 -7 18 10 18 -95 1 -113 -10 -11 -10 -13 -1 -7 18 10 18 -95 1 -113 -11
-11 -11 -13 0 -7 17 10 17 -95 0 -113 -10 -11 -10 -13 -1 -7 18 10 18 -95 1
-113 -11 -11 -11 -13 0 -7 9 5 12 -6 12 -46 0 -30 -6 -60 -12 -67 -10 -11 -10
-13 -1 -7 18 10 18 -95 1 -113 -10 -11 -10 -13 -1 -7 18 10 18 -95 1 -113 -10
-11 -10 -13 -1 -7 18 10 18 -95 1 -113 -10 -11 -10 -13 -1 -7 18 10 18 -95 1
-113 -10 -11 -10 -13 -1 -7 18 10 18 -95 1 -113 -10 -11 -10 -13 -1 -7 18 10
18 -95 1 -113 -10 -11 -10 -13 -1 -7 18 10 18 -95 0 -113 -9 -11 -9 -13 0 -7
10 5 13 -6 13 -46 0 -30 -6 -60 -13 -67 -9 -11 -9 -13 0 -7 18 10 18 -95 1
-113 -10 -11 -10 -13 -1 -7 18 10 18 -95 1 -113 -10 -11 -10 -13 -1 -7 18 10
18 -95 1 -113 -10 -11 -10 -13 -1 -7 18 10 18 -95 1 -113 -10 -11 -10 -13 -1
-7 18 10 18 -95 1 -113 -10 -11 -10 -13 -1 -7 18 10 18 -95 0 -113 -9 -11 -9
-13 0 -7 18 10 18 -95 1 -113 -10 -11 -10 -13 -1 -7 10 5 13 -6 13 -46 0 -30
-6 -60 -13 -67 -9 -11 -9 -13 0 -7 18 10 18 -95 1 -113 -10 -11 -10 -13 -1 -7
18 10 18 -95 1 -113 -10 -11 -10 -13 -1 -7 18 10 18 -95 1 -113 -10 -11 -10
-13 -1 -7 10 5 13 -5 13 -39 0 -84 72 -177 147 -191 18 -3 31 -9 29 -13 -3 -4
40 -7 95 -8 65 0 96 3 92 10 -4 6 -1 7 8 1 20 -13 240 -14 232 -1 -4 6 -1 7 8
1 20 -13 240 -14 232 -1 -4 6 -1 7 8 1 20 -13 240 -14 232 -1 -4 6 -1 7 8 1
20 -13 240 -14 232 -1 -4 6 -1 7 8 1 20 -13 240 -14 232 -1 -4 6 -1 7 8 1 20
-13 240 -14 232 -1 -4 6 -1 7 8 1 20 -13 240 -14 232 -1 -4 6 -1 7 8 1 20 -13
240 -14 232 -1 -4 6 -1 7 8 1 20 -13 240 -14 232 -1 -4 6 -1 7 8 1 20 -13 240
-14 232 -1 -4 6 -1 7 8 1 20 -13 240 -14 232 -1 -4 6 -1 7 8 1 20 -13 240 -14
232 -1 -4 6 -1 7 8 1 20 -13 240 -14 232 -1 -4 6 -1 7 8 1 20 -13 240 -14 232
-1 -4 6 -1 7 8 1 20 -13 240 -14 232 -1 -4 6 -1 7 8 1 20 -13 240 -14 232 -1
-4 6 -1 7 8 1 20 -13 240 -14 232 -1 -4 6 -1 7 8 1 21 -14 240 -14 232 0 -5 8
-3 8 8 0 17 -14 190 -14 182 0 -3 5 -1 6 6 2 19 -12 116 39 144 76 15 19 30
49 33 67 5 23 9 29 15 19 5 -7 9 1055 9 2360 0 1423 -4 2372 -9 2372 -5 0 -12
13 -16 29 -10 47 -74 108 -127 122 -26 7 -45 15 -43 18 2 4 -10 6 -25 6 -16 1
-26 -3 -24 -7 3 -4 0 -8 -5 -8 -6 0 -11 5 -11 10 0 6 -5 10 -11 10 -5 0 -7 -4
-4 -10 7 -12 -8 -14 -19 -3 -10 11 -76 11 -70 1 3 -4 0 -8 -5 -8 -6 0 -11 5
-11 10 0 6 -5 10 -11 10 -5 0 -7 -4 -4 -10 7 -12 -8 -14 -19 -3 -10 11 -76 11
-70 1 3 -4 0 -8 -5 -8 -6 0 -11 5 -11 10 0 6 -5 10 -11 10 -5 0 -7 -4 -4 -10
7 -12 -8 -14 -19 -3 -10 11 -76 11 -70 1 3 -4 0 -8 -5 -8 -6 0 -11 5 -11 10 0
6 -5 10 -11 10 -5 0 -7 -4 -4 -10 7 -12 -8 -14 -19 -3 -10 11 -76 11 -70 1 3
-4 0 -8 -5 -8 -6 0 -11 5 -11 10 0 6 -5 10 -11 10 -5 0 -7 -4 -4 -10 7 -12 -8
-14 -19 -3 -10 11 -76 11 -70 1 3 -4 0 -8 -5 -8 -6 0 -11 5 -11 10 0 6 -5 10
-11 10 -5 0 -7 -4 -4 -10 7 -12 -8 -14 -19 -3 -10 11 -76 11 -70 1 3 -4 0 -8
-5 -8 -6 0 -11 5 -11 10 0 6 -5 10 -11 10 -5 0 -7 -4 -4 -10 7 -12 -8 -14 -19
-3 -10 11 -76 11 -70 1 3 -4 0 -8 -5 -8 -6 0 -11 5 -11 10 0 6 -5 10 -11 10
-5 0 -7 -4 -4 -10 7 -12 -8 -14 -19 -3 -10 11 -76 11 -70 1 3 -4 0 -8 -5 -8
-6 0 -11 5 -11 10 0 6 -5 10 -11 10 -5 0 -7 -4 -4 -10 7 -12 -8 -14 -19 -3
-10 11 -76 11 -70 1 3 -4 0 -8 -5 -8 -6 0 -11 5 -11 10 0 6 -5 10 -11 10 -5 0
-7 -4 -4 -10 7 -12 -8 -14 -19 -3 -10 11 -76 11 -70 1 3 -4 0 -8 -5 -8 -6 0
-11 5 -11 10 0 6 -5 10 -11 10 -5 0 -7 -4 -4 -10 7 -12 -8 -14 -19 -3 -10 11
-76 11 -70 1 3 -4 0 -8 -5 -8 -6 0 -11 5 -11 10 0 6 -5 10 -11 10 -5 0 -7 -4
-4 -10 7 -12 -8 -14 -19 -3 -10 11 -76 11 -70 1 3 -4 0 -8 -5 -8 -6 0 -11 5
-11 10 0 6 -5 10 -11 10 -5 0 -7 -4 -4 -10 7 -12 -8 -14 -19 -3 -10 11 -76 11
-70 1 3 -4 0 -8 -5 -8 -6 0 -11 5 -11 10 0 6 -5 10 -11 10 -5 0 -7 -4 -4 -10
7 -12 -8 -14 -19 -3 -10 11 -76 11 -70 1 3 -4 0 -8 -5 -8 -6 0 -11 5 -11 10 0
6 -5 10 -11 10 -5 0 -7 -4 -4 -10 7 -12 -8 -14 -19 -3 -10 11 -76 11 -70 1 3
-4 0 -8 -5 -8 -6 0 -11 5 -11 10 0 6 -5 10 -11 10 -5 0 -7 -4 -4 -10 7 -12 -8
-14 -19 -3 -10 11 -76 11 -70 1 3 -4 0 -8 -5 -8 -6 0 -11 5 -11 10 0 6 -5 10
-11 10 -5 0 -7 -4 -4 -10 7 -12 -8 -14 -19 -3 -10 11 -76 11 -70 1 3 -4 0 -8
-5 -8 -6 0 -11 5 -11 10 0 6 -5 10 -11 10 -5 0 -7 -4 -4 -10 7 -12 -8 -14 -19
-3 -10 11 -76 11 -70 1 3 -4 0 -8 -5 -8 -6 0 -11 5 -11 10 0 6 -5 10 -11 10
-5 0 -7 -4 -4 -10 7 -12 -8 -14 -19 -3 -10 11 -76 11 -70 1 3 -4 0 -8 -5 -8
-6 0 -11 5 -11 10 0 6 -5 10 -11 10 -5 0 -7 -4 -4 -10 7 -12 -8 -14 -19 -3
-10 11 -76 11 -70 1 3 -4 0 -8 -5 -8 -6 0 -11 5 -11 10 0 6 -5 10 -11 10 -5 0
-7 -4 -4 -10 7 -12 -8 -14 -19 -3 -10 11 -76 11 -70 1 3 -4 0 -8 -5 -8 -6 0
-11 5 -11 10 0 6 -5 10 -11 10 -5 0 -7 -4 -4 -10 7 -12 -8 -14 -19 -3 -10 11
-76 11 -70 1 3 -4 0 -8 -5 -8 -6 0 -11 5 -11 10 0 6 -5 10 -11 10 -5 0 -7 -4
-4 -10 7 -12 -8 -14 -19 -3 -10 11 -76 11 -70 1 3 -4 0 -8 -5 -8 -6 0 -11 5
-11 10 0 6 -5 10 -11 10 -5 0 -7 -4 -4 -10 7 -12 -8 -14 -19 -3 -10 11 -76 11
-70 1 3 -4 0 -8 -5 -8 -6 0 -11 5 -11 10 0 6 -5 10 -11 10 -5 0 -7 -4 -4 -10
7 -12 -8 -14 -19 -3 -10 11 -76 11 -70 1 3 -4 0 -8 -5 -8 -6 0 -11 5 -11 10 0
6 -5 10 -11 10 -5 0 -7 -4 -4 -10 7 -12 -8 -14 -19 -3 -10 11 -76 11 -70 1 3
-4 0 -8 -5 -8 -6 0 -11 5 -11 10 0 6 -5 10 -11 10 -5 0 -7 -4 -4 -10 7 -12 -8
-14 -19 -3 -10 11 -76 11 -70 1 3 -4 0 -8 -5 -8 -6 0 -11 5 -11 10 0 6 -5 10
-11 10 -5 0 -7 -4 -4 -10 7 -12 -8 -14 -19 -3 -10 11 -76 11 -70 1 3 -4 0 -8
-5 -8 -6 0 -11 5 -11 10 0 6 -5 10 -11 10 -5 0 -7 -4 -4 -10 7 -12 -8 -14 -19
-3 -10 11 -76 11 -70 1 3 -4 0 -8 -5 -8 -6 0 -11 5 -11 10 0 6 -5 10 -11 10
-5 0 -7 -4 -4 -10 7 -12 -8 -14 -19 -3 -10 11 -76 11 -70 1 3 -4 0 -8 -5 -8
-6 0 -11 5 -11 10 0 6 -5 10 -11 10 -5 0 -7 -4 -4 -10 7 -12 -8 -14 -19 -3
-10 11 -76 11 -70 1 3 -4 0 -8 -5 -8 -6 0 -11 5 -11 10 0 6 -5 10 -11 10 -5 0
-7 -4 -4 -10 7 -12 -8 -14 -19 -3 -10 11 -76 11 -70 1 3 -4 0 -8 -5 -8 -6 0
-11 5 -11 10 0 6 -5 10 -11 10 -5 0 -7 -4 -4 -10 7 -12 -8 -14 -19 -3 -10 11
-76 11 -70 1 3 -4 0 -8 -5 -8 -6 0 -11 5 -11 10 0 6 -5 10 -11 10 -5 0 -7 -4
-4 -10 7 -12 -8 -14 -19 -3 -10 11 -76 11 -70 1 3 -4 0 -8 -5 -8 -6 0 -11 5
-11 10 0 6 -5 10 -11 10 -5 0 -7 -4 -4 -10 7 -12 -8 -14 -19 -3 -10 11 -76 11
-70 1 3 -4 0 -8 -5 -8 -6 0 -11 5 -11 10 0 6 -5 10 -11 10 -5 0 -7 -4 -4 -10
7 -12 -8 -14 -19 -3 -10 11 -76 11 -70 1 3 -4 0 -8 -5 -8 -6 0 -11 5 -11 10 0
6 -5 10 -11 10 -5 0 -7 -4 -4 -10 7 -12 -8 -14 -19 -3 -10 11 -76 11 -70 1 3
-4 0 -8 -5 -8 -6 0 -11 5 -11 10 0 6 -5 10 -11 10 -5 0 -7 -4 -4 -10 7 -12 -8
-14 -19 -3 -10 11 -76 11 -70 1 3 -4 0 -8 -5 -8 -6 0 -11 5 -11 10 0 6 -5 10
-11 10 -5 0 -7 -4 -4 -10 3 -5 2 -10 -4 -10 -5 0 -12 4 -16 9 -3 6 -14 9 -25
8 -10 -1 -16 -5 -14 -9z"/>
</g>
</svg>
